<svg width="134" height="32" viewBox="0 0 134 32" fill="none" xmlns="http://www.w3.org/2000/svg" role="img" aria-label="Atelier">
  <!-- Dark-chrome variant: light wordmark so it reads on a dark sidebar. -->
  <rect x="1" y="2" width="28" height="28" rx="8" fill="#3b82f6" />
  <g transform="translate(6.6 7.6) scale(0.7)" stroke="#ffffff" stroke-width="2" stroke-linecap="round" stroke-linejoin="round">
    <path d="M12 22a1 1 0 0 1 0-20 10 9 0 0 1 10 9 5 5 0 0 1-5 5h-2.25a1.75 1.75 0 0 0-1.4 2.8l.3.4a1.75 1.75 0 0 1-1.4 2.8z" />
    <circle cx="13.5" cy="6.5" r=".5" fill="#ffffff" />
    <circle cx="17.5" cy="10.5" r=".5" fill="#ffffff" />
    <circle cx="6.5" cy="12.5" r=".5" fill="#ffffff" />
    <circle cx="8.5" cy="7.5" r=".5" fill="#ffffff" />
  </g>
  <text
    x="40"
    y="22"
    font-family="ui-sans-serif, system-ui, -apple-system, 'Segoe UI', sans-serif"
    font-size="19"
    font-weight="600"
    letter-spacing="-0.01em"
    fill="#f8fafc"
  >Atelier</text>
</svg>
